<?xml version="1.0" encoding="UTF-8"?>
<!DOCTYPE svg PUBLIC "-//W3C//DTD SVG 1.1//EN" "http://www.w3.org/Graphics/SVG/1.1/DTD/svg11.dtd">
<svg xmlns="http://www.w3.org/2000/svg" version="1.1" width="212px" height="292px" style="shape-rendering:geometricPrecision; text-rendering:geometricPrecision; image-rendering:optimizeQuality; fill-rule:evenodd; clip-rule:evenodd" xmlns:xlink="http://www.w3.org/1999/xlink">
<g><path style="opacity:0.902" fill="#fefe00" d="M 46.5,-0.5 C 49.1667,-0.5 51.8333,-0.5 54.5,-0.5C 58.7333,7.35819 61.9,15.6915 64,24.5C 64.6667,28.8333 64.6667,33.1667 64,37.5C 60.1244,39.2547 57.1244,38.2547 55,34.5C 48.2146,23.6944 45.3812,12.0277 46.5,-0.5 Z"/></g>
<g><path style="opacity:0.907" fill="#fefe00" d="M 114.5,-0.5 C 117.5,-0.5 120.5,-0.5 123.5,-0.5C 121.711,12.5625 119.378,25.5625 116.5,38.5C 112.694,38.5879 109.027,37.9213 105.5,36.5C 104.578,23.2546 107.578,10.9213 114.5,-0.5 Z"/></g>
<g><path style="opacity:0.902" fill="#fefe00" d="M -0.5,36.5 C -0.5,33.5 -0.5,30.5 -0.5,27.5C 1.40239,26.4891 3.40239,26.3224 5.5,27C 11.9208,33.4247 18.9208,39.0914 26.5,44C 30.6906,47.3786 33.3573,51.7119 34.5,57C 30.4482,60.7921 26.1149,61.1254 21.5,58C 17.1667,54.3333 12.8333,50.6667 8.5,47C 4.88599,43.8967 1.88599,40.3967 -0.5,36.5 Z"/></g>
<g><path style="opacity:0.886" fill="#fefe00" d="M 175.5,30.5 C 177.857,30.3367 180.19,30.5034 182.5,31C 183.357,31.6891 184.023,32.5224 184.5,33.5C 178.396,41.7741 171.729,49.6075 164.5,57C 159.947,60.0078 154.947,61.1744 149.5,60.5C 149.462,55.3137 150.962,50.647 154,46.5C 160.786,40.5328 167.952,35.1994 175.5,30.5 Z"/></g>
<g><path style="opacity:0.9" fill="#fefe00" d="M 211.5,78.5 C 211.5,80.8333 211.5,83.1667 211.5,85.5C 199.511,88.0817 187.844,91.7483 176.5,96.5C 174.056,95.7783 171.722,94.7783 169.5,93.5C 181.771,139.118 167.437,173.618 126.5,197C 121.032,201.467 115.865,206.3 111,211.5C 99.8777,232.534 92.5444,254.868 89,278.5C 85.5825,279.622 82.2491,279.289 79,277.5C 78.7684,284.22 75.6017,288.887 69.5,291.5C 61.5,291.5 53.5,291.5 45.5,291.5C 38.122,289.047 31.9554,284.713 27,278.5C 22.5235,268.57 19.3568,258.237 17.5,247.5C 17.695,240.897 21.0283,238.397 27.5,240C 36.0986,242.651 44.7653,244.651 53.5,246C 43.9007,240.361 33.5674,237.361 22.5,237C 21.4844,236.481 20.8178,235.647 20.5,234.5C 26.0459,218.944 28.5459,202.944 28,186.5C 25.7735,175.048 21.1069,164.715 14,155.5C 6.5042,139.244 5.5042,122.577 11,105.5C 11.6667,106.833 12.3333,108.167 13,109.5C 14.5132,120.479 15.8466,131.479 17,142.5C 21.0037,154.173 26.337,165.173 33,175.5C 35.3818,188.078 37.2152,200.578 38.5,213C 41.2837,213.892 43.9504,215.058 46.5,216.5C 49.4327,200.237 51.9327,183.903 54,167.5C 54.8959,159.754 54.5625,152.087 53,144.5C 45.2988,139.384 42.9655,132.384 46,123.5C 49.135,117.011 53.9684,115.177 60.5,118C 66.582,124.587 69.2487,132.42 68.5,141.5C 70.1667,141.5 71.8333,141.5 73.5,141.5C 72.7512,137.181 72.5845,132.848 73,128.5C 74.5966,124.731 76.43,121.064 78.5,117.5C 85.1761,116.362 91.6761,117.029 98,119.5C 100.072,122.883 101.239,126.55 101.5,130.5C 100.117,135.598 98.4508,140.598 96.5,145.5C 97.5,145.5 98.5,145.5 99.5,145.5C 101.701,138.783 105.701,133.283 111.5,129C 115.698,126.839 119.698,127.172 123.5,130C 125.241,131.62 127.075,133.12 129,134.5C 132,145.668 128.5,154.168 118.5,160C 112.826,159.419 108.659,161.586 106,166.5C 97.5,186.833 89,207.167 80.5,227.5C 84.0918,229.43 87.9252,231.097 92,232.5C 97.0525,222.733 102.386,213.066 108,203.5C 118.222,195.612 128.722,188.112 139.5,181C 168.597,153.172 174.431,121.006 157,84.5C 139.516,57.839 114.683,45.0057 82.5,46C 60.2467,48.5398 42.4133,58.7065 29,76.5C 23.3278,85.1738 18.1611,94.1738 13.5,103.5C 14.4476,80.7844 24.781,63.6178 44.5,52C 69.4,38.0016 95.4,35.6683 122.5,45C 134.535,49.9374 144.702,57.4374 153,67.5C 157.67,74.9916 162.504,82.3249 167.5,89.5C 169.866,84.3038 173.866,81.1371 179.5,80C 190.101,77.6595 200.768,77.1595 211.5,78.5 Z M 55.5,131.5 C 54.5266,131.013 53.5266,130.513 52.5,130C 53.7014,129.097 54.5348,127.931 55,126.5C 55.4935,128.134 55.6602,129.801 55.5,131.5 Z M 84.5,129.5 C 85.552,129.351 86.552,129.517 87.5,130C 85.1871,137.462 84.1871,137.295 84.5,129.5 Z M 66.5,152.5 C 71.6543,154.1 76.9876,154.934 82.5,155C 87.1139,156.132 91.1139,158.299 94.5,161.5C 85.591,182.315 76.4243,202.982 67,223.5C 64.1836,222.338 61.3503,221.171 58.5,220C 57.8729,218.262 57.5396,216.429 57.5,214.5C 60.509,193.785 63.509,173.119 66.5,152.5 Z M 28.5,227.5 C 30.5242,224.164 33.5242,222.997 37.5,224C 44.8949,226.531 51.8949,229.864 58.5,234C 52.2883,233.378 46.2883,231.711 40.5,229C 36.5598,227.985 32.5598,227.485 28.5,227.5 Z M 22.5,247.5 C 30.3396,250.171 38.0063,253.338 45.5,257C 37.9634,255.396 30.2968,254.229 22.5,253.5C 22.5,251.5 22.5,249.5 22.5,247.5 Z M 66.5,265.5 C 68.288,265.215 69.9547,265.548 71.5,266.5C 70.6667,266.833 69.8333,267.167 69,267.5C 67.6244,267.316 66.7911,266.649 66.5,265.5 Z M 29.5,267.5 C 29.56,266.957 29.8933,266.624 30.5,266.5C 43.3137,271.742 55.9804,277.242 68.5,283C 59.0683,285.223 49.7349,284.889 40.5,282C 34.6695,278.687 31.0028,273.853 29.5,267.5 Z"/></g>
</svg>
