<?xml version="1.0" encoding="UTF-8"?>
<!DOCTYPE svg PUBLIC "-//W3C//DTD SVG 1.1//EN" "http://www.w3.org/Graphics/SVG/1.1/DTD/svg11.dtd">
<svg xmlns="http://www.w3.org/2000/svg" version="1.1" width="344px" height="344px" style="shape-rendering:geometricPrecision; text-rendering:geometricPrecision; image-rendering:optimizeQuality; fill-rule:evenodd; clip-rule:evenodd" xmlns:xlink="http://www.w3.org/1999/xlink">
<g><path style="opacity:0.999" fill="#9976f1" d="M 325.5,94.5 C 324.732,95.2625 324.232,96.2625 324,97.5C 322.088,95.3428 320.421,93.0094 319,90.5C 319.694,106.758 314.528,120.758 303.5,132.5C 300.058,135.233 296.725,138.067 293.5,141C 291.975,142.009 290.308,142.509 288.5,142.5C 294.163,137.004 299.997,131.671 306,126.5C 313.342,114.77 314.675,102.436 310,89.5C 307.702,83.8797 304.036,79.5464 299,76.5C 298.5,76.8333 298,77.1667 297.5,77.5C 303.623,91.4008 301.456,104.401 291,116.5C 288.806,118.694 286.64,120.86 284.5,123C 261.833,138 239.167,153 216.5,168C 206.973,173.953 196.973,178.953 186.5,183C 184.606,184.079 184.273,185.413 185.5,187C 191.972,189.202 198.639,190.035 205.5,189.5C 198.655,190.74 191.655,190.74 184.5,189.5C 182.42,189.314 180.92,188.314 180,186.5C 179.251,185.365 179.417,184.365 180.5,183.5C 191.105,179.197 201.438,174.364 211.5,169C 234.602,153.85 257.602,138.85 280.5,124C 288.784,118.061 294.284,110.228 297,100.5C 299.103,84.0981 291.936,74.7647 275.5,72.5C 255.624,76.7277 237.624,84.8943 221.5,97C 220.207,97.49 218.873,97.6567 217.5,97.5C 219.366,94.7299 222.032,93.2299 225.5,93C 232.037,86.7902 239.37,81.7902 247.5,78C 249.037,76.8904 249.703,75.3904 249.5,73.5C 242.434,73.7986 235.767,75.6319 229.5,79C 208.997,91.7504 188.664,104.75 168.5,118C 166.627,119.704 164.96,121.537 163.5,123.5C 159.278,123.263 155.111,123.596 151,124.5C 149.97,124.164 149.47,123.497 149.5,122.5C 153.236,119.349 157.07,115.683 161,111.5C 163.092,111.071 165.092,109.738 167,107.5C 167.333,107.833 167.667,108.167 168,108.5C 172.102,105.68 176.102,102.68 180,99.5C 181,99.5 182,99.5 183,99.5C 183.615,97.8839 184.615,96.5505 186,95.5C 187,95.5 188,95.5 189,95.5C 189.465,94.0692 190.299,92.9025 191.5,92C 201.669,86.2832 211.836,79.7832 222,72.5C 222.333,72.8333 222.667,73.1667 223,73.5C 227.175,71.7961 231.342,69.2961 235.5,66C 238,65.6253 240.333,64.7919 242.5,63.5C 243.842,64.9023 244.676,64.5689 245,62.5C 246.268,62.6158 247.602,62.9491 249,63.5C 249.519,62.4844 250.353,61.8178 251.5,61.5C 254.807,60.7052 258.141,60.0385 261.5,59.5C 267.832,60.4644 274.165,60.6311 280.5,60C 285.117,60.8433 288.951,62.3433 292,64.5C 294.848,63.7433 297.181,64.7433 299,67.5C 300.507,66.4652 302.007,66.6319 303.5,68C 308.103,70.6019 312.103,73.9352 315.5,78C 314.346,78.9138 314.513,79.7471 316,80.5C 316.667,79.1667 317.333,79.1667 318,80.5C 318.617,81.4491 318.451,82.2825 317.5,83C 319.521,83.513 321.021,84.6797 322,86.5C 323.076,89.2373 324.243,91.904 325.5,94.5 Z"/></g>
<g><path style="opacity:1" fill="#a58bf1" d="M 217.5,97.5 C 216.989,99.1947 216.322,100.861 215.5,102.5C 210.195,105.154 205.195,108.321 200.5,112C 199.167,112.333 197.833,112.667 196.5,113C 191.153,117.422 185.82,121.755 180.5,126C 181.056,126.383 181.389,126.883 181.5,127.5C 175.623,125.741 169.623,124.408 163.5,123.5C 164.96,121.537 166.627,119.704 168.5,118C 188.664,104.75 208.997,91.7504 229.5,79C 235.767,75.6319 242.434,73.7986 249.5,73.5C 249.703,75.3904 249.037,76.8904 247.5,78C 239.37,81.7902 232.037,86.7902 225.5,93C 222.032,93.2299 219.366,94.7299 217.5,97.5 Z"/></g>
<g><path style="opacity:1" fill="#9b7aef" d="M 288.5,142.5 C 287.833,142.5 287.167,142.5 286.5,142.5C 281.417,146.888 276.084,151.055 270.5,155C 265.896,157.349 261.229,159.516 256.5,161.5C 253.718,164.238 251.051,167.071 248.5,170C 243.048,171.786 238.382,174.786 234.5,179C 228.627,181.13 222.96,183.797 217.5,187C 213.595,188.359 209.595,189.192 205.5,189.5C 198.639,190.035 191.972,189.202 185.5,187C 184.273,185.413 184.606,184.079 186.5,183C 196.973,178.953 206.973,173.953 216.5,168C 239.167,153 261.833,138 284.5,123C 286.64,120.86 288.806,118.694 291,116.5C 301.456,104.401 303.623,91.4008 297.5,77.5C 298,77.1667 298.5,76.8333 299,76.5C 304.036,79.5464 307.702,83.8797 310,89.5C 314.675,102.436 313.342,114.77 306,126.5C 299.997,131.671 294.163,137.004 288.5,142.5 Z"/></g>
<g><path style="opacity:1" fill="#7847e9" d="M 285.5,108.5 C 288.303,105.796 289.137,102.463 288,98.5C 287.689,96.444 287.189,94.444 286.5,92.5C 284.493,90.9918 282.826,89.1584 281.5,87C 273.808,83.7524 265.808,82.7524 257.5,84C 246.249,90.165 234.915,96.3316 223.5,102.5C 220.673,106.159 217.34,109.326 213.5,112C 205.001,116.748 196.668,121.748 188.5,127C 188.381,128.145 188.048,129.312 187.5,130.5C 186.29,130.068 185.29,129.401 184.5,128.5C 189.169,122.497 195.169,118.497 202.5,116.5C 206.564,110.962 211.898,107.129 218.5,105C 225.045,99.4553 231.878,94.2886 239,89.5C 246.651,87.0924 254.151,84.259 261.5,81C 284.534,77.0351 293.701,86.5351 289,109.5C 285.526,115.164 284.36,114.831 285.5,108.5 Z"/></g>
<g><path style="opacity:1" fill="#5510df" d="M 285.5,108.5 C 285.5,107.167 285.5,105.833 285.5,104.5C 283.821,104.285 282.821,104.952 282.5,106.5C 281.5,106.167 280.833,105.5 280.5,104.5C 281.167,104.5 281.5,104.167 281.5,103.5C 281.938,103.565 282.272,103.399 282.5,103C 281,100.167 278.833,98 276,96.5C 275.517,95.552 275.351,94.552 275.5,93.5C 266.274,92.0371 257.107,92.3705 248,94.5C 231.579,106.293 214.746,117.46 197.5,128C 196.267,129.667 194.933,131.167 193.5,132.5C 192.833,132.5 192.167,132.5 191.5,132.5C 190.167,131.833 188.833,131.167 187.5,130.5C 188.048,129.312 188.381,128.145 188.5,127C 196.668,121.748 205.001,116.748 213.5,112C 217.34,109.326 220.673,106.159 223.5,102.5C 234.915,96.3316 246.249,90.165 257.5,84C 265.808,82.7524 273.808,83.7524 281.5,87C 282.826,89.1584 284.493,90.9918 286.5,92.5C 287.189,94.444 287.689,96.444 288,98.5C 289.137,102.463 288.303,105.796 285.5,108.5 Z"/></g>
<g><path style="opacity:1" fill="#2400bd" d="M 281.5,103.5 C 281.167,103.5 280.833,103.5 280.5,103.5C 279.152,102.399 277.652,101.399 276,100.5C 275.691,99.2341 275.191,98.0674 274.5,97C 268.5,96.3333 262.5,96.3333 256.5,97C 252.64,100.206 248.307,102.373 243.5,103.5C 239.458,105.017 236.458,107.684 234.5,111.5C 228.932,112.954 223.598,114.954 218.5,117.5C 211.262,122.939 203.929,128.106 196.5,133C 195.251,133.74 194.251,133.573 193.5,132.5C 194.933,131.167 196.267,129.667 197.5,128C 214.746,117.46 231.579,106.293 248,94.5C 257.107,92.3705 266.274,92.0371 275.5,93.5C 275.351,94.552 275.517,95.552 276,96.5C 278.833,98 281,100.167 282.5,103C 282.272,103.399 281.938,103.565 281.5,103.5 Z"/></g>
<g><path style="opacity:0.996" fill="#1b0eac" d="M 243.5,103.5 C 243.608,105.514 242.942,107.18 241.5,108.5C 232.051,115.589 222.551,121.923 213,127.5C 212.667,127.167 212.333,126.833 212,126.5C 211.561,129.299 210.228,130.299 208,129.5C 206.64,131.105 205.14,132.605 203.5,134C 202.551,134.617 201.718,134.451 201,133.5C 200.52,135.133 199.687,136.466 198.5,137.5C 195.865,136.189 193.531,134.522 191.5,132.5C 192.167,132.5 192.833,132.5 193.5,132.5C 194.251,133.573 195.251,133.74 196.5,133C 203.929,128.106 211.262,122.939 218.5,117.5C 223.598,114.954 228.932,112.954 234.5,111.5C 236.458,107.684 239.458,105.017 243.5,103.5 Z"/></g>
<g><path style="opacity:0.004" fill="#fefffe" d="M 131.5,128.5 C 130.833,127.167 130.833,127.167 131.5,128.5 Z"/></g>
<g><path style="opacity:1" fill="#c3c9ef" d="M 145.5,123.5 C 145.577,124.75 146.244,125.583 147.5,126C 143.81,126.424 143.643,127.258 147,128.5C 150.475,127.578 154.309,127.412 158.5,128C 160.5,128.667 161.833,130 162.5,132C 158.832,136.478 154.498,139.978 149.5,142.5C 138.006,146.914 127.006,152.414 116.5,159C 99.3325,170.753 81.6658,181.753 63.5,192C 60.387,193.779 57.0537,194.945 53.5,195.5C 51.143,195.308 49.4763,194.142 48.5,192C 49.6411,190.383 50.4745,188.55 51,186.5C 54.5,183.667 58,180.833 61.5,178C 86.4781,161.121 111.811,145.121 137.5,130C 136.5,129.667 135.5,129.333 134.5,129C 136.426,128.578 137.426,127.411 137.5,125.5C 140.146,125.679 142.813,125.012 145.5,123.5 Z"/></g>
<g><path style="opacity:0.993" fill="#bfc5ef" d="M 137.5,125.5 C 137.426,127.411 136.426,128.578 134.5,129C 135.5,129.333 136.5,129.667 137.5,130C 111.811,145.121 86.4781,161.121 61.5,178C 58,180.833 54.5,183.667 51,186.5C 50.4745,188.55 49.6411,190.383 48.5,192C 49.4763,194.142 51.143,195.308 53.5,195.5C 57.0537,194.945 60.387,193.779 63.5,192C 81.6658,181.753 99.3325,170.753 116.5,159C 127.006,152.414 138.006,146.914 149.5,142.5C 158.351,139.669 167.351,136.335 176.5,132.5C 177.293,133.355 176.96,134.189 175.5,135C 160.348,140.941 145.348,147.274 130.5,154C 103.821,172.014 76.1539,188.348 47.5,203C 45.236,203.236 43.0693,203.736 41,204.5C 38.1745,202.936 37.1745,200.602 38,197.5C 39.4385,194.126 41.2718,190.959 43.5,188C 41.9419,187.79 40.6085,187.29 39.5,186.5C 41.9018,183.785 44.5685,181.285 47.5,179C 71.9164,163.351 97.2497,147.351 123.5,131C 126.4,129.648 129.066,128.815 131.5,128.5C 133.289,127.123 135.289,126.123 137.5,125.5 Z"/></g>
<g><path style="opacity:1" fill="#b9bfeb" d="M 149.5,122.5 C 149.47,123.497 149.97,124.164 151,124.5C 155.111,123.596 159.278,123.263 163.5,123.5C 169.623,124.408 175.623,125.741 181.5,127.5C 182.391,128.11 183.391,128.443 184.5,128.5C 185.29,129.401 186.29,130.068 187.5,130.5C 188.708,134.913 187.042,138.08 182.5,140C 163.998,142.288 146.665,147.954 130.5,157C 98.7746,178.198 66.1079,197.864 32.5,216C 28.9984,216.282 25.6651,216.449 22.5,216.5C 21.7492,215.624 21.2492,214.624 21,213.5C 20.5357,214.094 20.369,214.761 20.5,215.5C 19.4265,214.749 19.2599,213.749 20,212.5C 21.2606,209.789 23.094,207.622 25.5,206C 25.3891,201.951 27.3891,198.951 31.5,197C 30.7203,195.927 30.887,194.76 32,193.5C 34.3435,190.989 36.8435,188.656 39.5,186.5C 40.6085,187.29 41.9419,187.79 43.5,188C 41.2718,190.959 39.4385,194.126 38,197.5C 37.1745,200.602 38.1745,202.936 41,204.5C 43.0693,203.736 45.236,203.236 47.5,203C 76.1539,188.348 103.821,172.014 130.5,154C 145.348,147.274 160.348,140.941 175.5,135C 176.96,134.189 177.293,133.355 176.5,132.5C 167.351,136.335 158.351,139.669 149.5,142.5C 154.498,139.978 158.832,136.478 162.5,132C 161.833,130 160.5,128.667 158.5,128C 154.309,127.412 150.475,127.578 147,128.5C 143.643,127.258 143.81,126.424 147.5,126C 146.244,125.583 145.577,124.75 145.5,123.5C 146.959,123.567 148.292,123.234 149.5,122.5 Z"/></g>
<g><path style="opacity:1" fill="#744ae4" d="M 325.5,121.5 C 326.692,122.566 326.359,123.399 324.5,124C 324.833,124.333 325.167,124.667 325.5,125C 324.137,126.945 323.303,129.112 323,131.5C 322.329,132.252 321.496,132.586 320.5,132.5C 320.5,130.833 320.5,129.167 320.5,127.5C 319.448,127.351 318.448,127.517 317.5,128C 306.336,139.511 293.336,148.177 278.5,154C 269.45,161.188 259.783,167.355 249.5,172.5C 258.957,163.251 269.957,156.085 282.5,151C 290.973,145.592 299.306,139.926 307.5,134C 313.136,125.674 317.97,116.84 322,107.5C 323.224,112.386 323.891,117.386 324,122.5C 324.383,121.944 324.883,121.611 325.5,121.5 Z"/></g>
<g><path style="opacity:0.999" fill="#8e67ee" d="M 205.5,189.5 C 209.595,189.192 213.595,188.359 217.5,187C 222.96,183.797 228.627,181.13 234.5,179C 238.382,174.786 243.048,171.786 248.5,170C 251.051,167.071 253.718,164.238 256.5,161.5C 261.229,159.516 265.896,157.349 270.5,155C 276.084,151.055 281.417,146.888 286.5,142.5C 287.167,142.5 287.833,142.5 288.5,142.5C 290.308,142.509 291.975,142.009 293.5,141C 296.725,138.067 300.058,135.233 303.5,132.5C 314.528,120.758 319.694,106.758 319,90.5C 320.421,93.0094 322.088,95.3428 324,97.5C 324.232,96.2625 324.732,95.2625 325.5,94.5C 328.046,103.251 328.046,112.251 325.5,121.5C 324.883,121.611 324.383,121.944 324,122.5C 323.891,117.386 323.224,112.386 322,107.5C 317.97,116.84 313.136,125.674 307.5,134C 299.306,139.926 290.973,145.592 282.5,151C 269.957,156.085 258.957,163.251 249.5,172.5C 247.973,172.427 246.973,173.094 246.5,174.5C 235.768,180.354 224.768,185.854 213.5,191C 203.227,192.566 192.893,192.899 182.5,192C 178.372,191.602 174.706,190.102 171.5,187.5C 169.721,183.904 170.721,181.404 174.5,180C 182.987,177.795 191.32,175.129 199.5,172C 198.207,171.51 196.873,171.343 195.5,171.5C 198.788,170.901 201.788,169.568 204.5,167.5C 206.403,167.204 208.07,166.537 209.5,165.5C 210.309,164.531 211.309,163.698 212.5,163C 211.584,162.722 210.918,162.222 210.5,161.5C 215.464,159.85 220.297,157.184 225,153.5C 225.333,153.833 225.667,154.167 226,154.5C 226.615,152.884 227.615,151.551 229,150.5C 230,150.5 231,150.5 232,150.5C 232.465,149.069 233.299,147.903 234.5,147C 243.424,141.486 251.591,136.32 259,131.5C 267.754,126.488 275.92,119.988 283.5,112C 283.327,110.091 282.993,108.257 282.5,106.5C 282.821,104.952 283.821,104.285 285.5,104.5C 285.5,105.833 285.5,107.167 285.5,108.5C 284.36,114.831 285.526,115.164 289,109.5C 293.701,86.5351 284.534,77.0351 261.5,81C 254.151,84.259 246.651,87.0924 239,89.5C 231.878,94.2886 225.045,99.4553 218.5,105C 211.898,107.129 206.564,110.962 202.5,116.5C 195.169,118.497 189.169,122.497 184.5,128.5C 183.391,128.443 182.391,128.11 181.5,127.5C 181.389,126.883 181.056,126.383 180.5,126C 185.82,121.755 191.153,117.422 196.5,113C 197.833,112.667 199.167,112.333 200.5,112C 205.195,108.321 210.195,105.154 215.5,102.5C 216.322,100.861 216.989,99.1947 217.5,97.5C 218.873,97.6567 220.207,97.49 221.5,97C 237.624,84.8943 255.624,76.7277 275.5,72.5C 291.936,74.7647 299.103,84.0981 297,100.5C 294.284,110.228 288.784,118.061 280.5,124C 257.602,138.85 234.602,153.85 211.5,169C 201.438,174.364 191.105,179.197 180.5,183.5C 179.417,184.365 179.251,185.365 180,186.5C 180.92,188.314 182.42,189.314 184.5,189.5C 191.655,190.74 198.655,190.74 205.5,189.5 Z"/></g>
<g><path style="opacity:1" fill="#a58bf0" d="M 286.5,142.5 C 281.723,145.06 277.056,147.893 272.5,151C 267.173,151.989 262.507,154.322 258.5,158C 256.392,158.36 254.392,159.027 252.5,160C 245.681,165.487 238.348,170.154 230.5,174C 228.5,176.333 226.5,178.667 224.5,181C 216.713,184.061 208.713,185.227 200.5,184.5C 199.479,183.998 199.312,183.332 200,182.5C 235.071,159.902 269.904,137.235 304.5,114.5C 304.452,118.813 303.285,122.813 301,126.5C 296.925,132.731 292.091,138.065 286.5,142.5 Z"/></g>
<g><path style="opacity:0.541" fill="#171590" d="M 280.5,103.5 C 280.5,103.833 280.5,104.167 280.5,104.5C 279.279,103.972 278.113,103.305 277,102.5C 275.869,103.604 275.035,103.271 274.5,101.5C 269.198,100.337 263.864,100.171 258.5,101C 257.667,101.833 256.833,102.667 256,103.5C 254.089,103.745 252.089,103.745 250,103.5C 247.551,105.775 244.717,107.442 241.5,108.5C 242.942,107.18 243.608,105.514 243.5,103.5C 248.307,102.373 252.64,100.206 256.5,97C 262.5,96.3333 268.5,96.3333 274.5,97C 275.191,98.0674 275.691,99.2341 276,100.5C 277.652,101.399 279.152,102.399 280.5,103.5 Z"/></g>
<g><path style="opacity:1" fill="#969ada" d="M 203.5,142.5 C 207.017,146.864 209.684,152.197 211.5,158.5C 210.873,159.417 210.539,160.417 210.5,161.5C 210.918,162.222 211.584,162.722 212.5,163C 211.309,163.698 210.309,164.531 209.5,165.5C 206.905,164.407 204.738,162.74 203,160.5C 183.169,154.072 163.336,153.905 143.5,160C 132.365,167.072 121.032,173.905 109.5,180.5C 108.618,181.76 107.618,182.926 106.5,184C 98.7987,187.861 91.4653,192.361 84.5,197.5C 80.9795,200.187 77.9795,203.353 75.5,207C 70.6332,210.265 65.6332,213.265 60.5,216C 55.7325,224.035 49.8992,231.202 43,237.5C 42.1117,242.388 39.6117,246.221 35.5,249C 29.8487,250.196 24.182,250.696 18.5,250.5C 17.1365,245.983 16.1365,240.649 15.5,234.5C 15.481,231.158 16.1476,227.991 17.5,225C 16.944,224.617 16.6107,224.117 16.5,223.5C 17.911,226.512 19.5777,229.512 21.5,232.5C 25.9298,233.739 30.2631,233.406 34.5,231.5C 42.3972,225.705 49.7305,219.205 56.5,212C 67.712,204.567 78.712,196.9 89.5,189C 99.913,184.626 109.58,178.959 118.5,172C 120.5,171.333 122.5,170.667 124.5,170C 126.411,167.378 128.745,165.211 131.5,163.5C 137.138,161.348 142.472,158.681 147.5,155.5C 154.153,152.253 161.153,150.086 168.5,149C 180.167,148.439 191.834,147.939 203.5,147.5C 203.5,145.833 203.5,144.167 203.5,142.5 Z"/></g>
<g><path style="opacity:1" fill="#605bd3" d="M 204.5,167.5 C 201.788,169.568 198.788,170.901 195.5,171.5C 193.833,171.5 192.167,171.5 190.5,171.5C 183.058,160.811 172.724,157.311 159.5,161C 156.846,161.941 154.179,162.774 151.5,163.5C 147.712,165.243 143.712,166.577 139.5,167.5C 140.574,166.115 141.907,164.949 143.5,164C 151.994,159.799 160.994,157.299 170.5,156.5C 174.902,156.485 179.235,156.985 183.5,158C 190.638,161 197.638,164.167 204.5,167.5 Z"/></g>
<g><path style="opacity:1" fill="#6531de" d="M 320.5,132.5 C 321.443,134.001 321.109,135.335 319.5,136.5C 318.552,134.54 318.386,132.54 319,130.5C 310.882,136.602 302.716,142.769 294.5,149C 285.658,155.171 276.325,160.504 266.5,165C 260.659,171.918 253.325,176.252 244.5,178C 243.154,179.669 241.487,180.836 239.5,181.5C 241.479,178.854 243.812,176.521 246.5,174.5C 246.973,173.094 247.973,172.427 249.5,172.5C 259.783,167.355 269.45,161.188 278.5,154C 293.336,148.177 306.336,139.511 317.5,128C 318.448,127.517 319.448,127.351 320.5,127.5C 320.5,129.167 320.5,130.833 320.5,132.5 Z"/></g>
<g><path style="opacity:1" fill="#abb0e3" d="M 187.5,130.5 C 188.833,131.167 190.167,131.833 191.5,132.5C 193.531,134.522 195.865,136.189 198.5,137.5C 201.507,138.492 203.173,140.159 203.5,142.5C 203.5,144.167 203.5,145.833 203.5,147.5C 191.834,147.939 180.167,148.439 168.5,149C 161.153,150.086 154.153,152.253 147.5,155.5C 142.472,158.681 137.138,161.348 131.5,163.5C 128.745,165.211 126.411,167.378 124.5,170C 122.5,170.667 120.5,171.333 118.5,172C 109.58,178.959 99.913,184.626 89.5,189C 78.712,196.9 67.712,204.567 56.5,212C 49.7305,219.205 42.3972,225.705 34.5,231.5C 30.2631,233.406 25.9298,233.739 21.5,232.5C 19.5777,229.512 17.911,226.512 16.5,223.5C 16.8961,220.279 18.2295,217.612 20.5,215.5C 20.369,214.761 20.5357,214.094 21,213.5C 21.2492,214.624 21.7492,215.624 22.5,216.5C 25.6651,216.449 28.9984,216.282 32.5,216C 66.1079,197.864 98.7746,178.198 130.5,157C 146.665,147.954 163.998,142.288 182.5,140C 187.042,138.08 188.708,134.913 187.5,130.5 Z"/></g>
<g><path style="opacity:0.998" fill="#2305ba" d="M 318.5,137.5 C 317.345,140.398 315.512,143.398 313,146.5C 311.188,148.3 309.355,149.967 307.5,151.5C 304.351,151.211 301.351,151.711 298.5,153C 296.661,156.004 294.327,158.504 291.5,160.5C 283.975,164.502 276.308,168.335 268.5,172C 261.489,178.233 253.822,183.566 245.5,188C 243.167,189.667 241.167,191.667 239.5,194C 231.98,197.591 224.314,200.925 216.5,204C 196.935,208.091 177.269,208.591 157.5,205.5C 154.605,204.601 151.938,203.267 149.5,201.5C 148.368,200.646 147.035,200.646 145.5,201.5C 146.303,200.577 146.47,199.577 146,198.5C 145.667,198.833 145.333,199.167 145,199.5C 141.607,194.865 138.107,189.699 134.5,184C 134.957,183.586 135.291,183.086 135.5,182.5C 134.09,181.431 133.09,180.097 132.5,178.5C 136.876,173.466 142.209,169.632 148.5,167C 149.71,165.961 150.71,164.794 151.5,163.5C 154.179,162.774 156.846,161.941 159.5,161C 172.724,157.311 183.058,160.811 190.5,171.5C 189.791,172.404 188.791,172.737 187.5,172.5C 185.167,172.5 182.833,172.5 180.5,172.5C 168.536,167.447 157.703,169.447 148,178.5C 147.333,182.5 147.333,186.5 148,190.5C 154.809,198.782 163.642,203.282 174.5,204C 186.621,205.107 198.621,204.44 210.5,202C 223.149,195.676 235.816,189.342 248.5,183C 262.107,173.045 276.44,164.378 291.5,157C 299.893,150.599 307.56,143.599 314.5,136C 316.14,135.652 317.473,136.152 318.5,137.5 Z"/></g>
<g><path style="opacity:0.008" fill="#000080" d="M 252.5,188.5 C 252.833,188.5 253.167,188.5 253.5,188.5C 253.315,189.17 252.981,189.17 252.5,188.5 Z"/></g>
<g><path style="opacity:1" fill="#4e07d5" d="M 319.5,136.5 C 319.5,137.167 319.167,137.5 318.5,137.5C 317.473,136.152 316.14,135.652 314.5,136C 307.56,143.599 299.893,150.599 291.5,157C 276.44,164.378 262.107,173.045 248.5,183C 235.816,189.342 223.149,195.676 210.5,202C 198.621,204.44 186.621,205.107 174.5,204C 163.642,203.282 154.809,198.782 148,190.5C 147.333,186.5 147.333,182.5 148,178.5C 157.703,169.447 168.536,167.447 180.5,172.5C 174.055,172.463 167.722,173.296 161.5,175C 155.65,177.805 152.816,182.305 153,188.5C 166.212,198.929 181.379,202.763 198.5,200C 203.122,198.793 207.789,197.793 212.5,197C 217.973,194.214 223.64,191.881 229.5,190C 232.435,186.554 235.769,183.721 239.5,181.5C 241.487,180.836 243.154,179.669 244.5,178C 253.325,176.252 260.659,171.918 266.5,165C 276.325,160.504 285.658,155.171 294.5,149C 302.716,142.769 310.882,136.602 319,130.5C 318.386,132.54 318.552,134.54 319.5,136.5 Z"/></g>
<g><path style="opacity:1" fill="#8458ea" d="M 190.5,171.5 C 192.167,171.5 193.833,171.5 195.5,171.5C 196.873,171.343 198.207,171.51 199.5,172C 191.32,175.129 182.987,177.795 174.5,180C 170.721,181.404 169.721,183.904 171.5,187.5C 174.706,190.102 178.372,191.602 182.5,192C 192.893,192.899 203.227,192.566 213.5,191C 224.768,185.854 235.768,180.354 246.5,174.5C 243.812,176.521 241.479,178.854 239.5,181.5C 227.857,186.816 215.857,191.316 203.5,195C 191.957,196.19 180.624,195.19 169.5,192C 162.882,189.928 160.715,185.762 163,179.5C 164.8,177.683 166.966,176.516 169.5,176C 175.733,175.314 181.733,174.147 187.5,172.5C 188.791,172.737 189.791,172.404 190.5,171.5 Z"/></g>
<g><path style="opacity:1" fill="#6b36e2" d="M 180.5,172.5 C 182.833,172.5 185.167,172.5 187.5,172.5C 181.733,174.147 175.733,175.314 169.5,176C 166.966,176.516 164.8,177.683 163,179.5C 160.715,185.762 162.882,189.928 169.5,192C 180.624,195.19 191.957,196.19 203.5,195C 215.857,191.316 227.857,186.816 239.5,181.5C 235.769,183.721 232.435,186.554 229.5,190C 223.64,191.881 217.973,194.214 212.5,197C 207.789,197.793 203.122,198.793 198.5,200C 181.379,202.763 166.212,198.929 153,188.5C 152.816,182.305 155.65,177.805 161.5,175C 167.722,173.296 174.055,172.463 180.5,172.5 Z"/></g>
<g><path style="opacity:1" fill="#1b059b" d="M 307.5,151.5 C 303.179,155.975 298.346,159.975 293,163.5C 292.667,163.167 292.333,162.833 292,162.5C 290.903,164.053 289.57,165.386 288,166.5C 287.667,166.167 287.333,165.833 287,165.5C 286.535,166.931 285.701,168.097 284.5,169C 281.462,170.533 278.962,172.033 277,173.5C 276.667,173.167 276.333,172.833 276,172.5C 275.276,174.959 273.943,175.959 272,175.5C 270.997,178.156 269.33,179.156 267,178.5C 266.561,181.299 265.228,182.299 263,181.5C 260.523,184.816 257.356,187.149 253.5,188.5C 253.167,187.167 252.833,187.167 252.5,188.5C 251.636,189.688 250.636,190.855 249.5,192C 248.551,192.617 247.718,192.451 247,191.5C 244.767,195.21 241.601,197.877 237.5,199.5C 224.304,203.063 210.971,206.73 197.5,210.5C 187.824,211.726 178.157,211.726 168.5,210.5C 168.167,210.5 167.833,210.5 167.5,210.5C 163.569,209.868 160.235,208.201 157.5,205.5C 177.269,208.591 196.935,208.091 216.5,204C 224.314,200.925 231.98,197.591 239.5,194C 241.167,191.667 243.167,189.667 245.5,188C 253.822,183.566 261.489,178.233 268.5,172C 276.308,168.335 283.975,164.502 291.5,160.5C 294.327,158.504 296.661,156.004 298.5,153C 301.351,151.711 304.351,151.211 307.5,151.5 Z"/></g>
<g><path style="opacity:0.004" fill="#000000" d="M 219.5,208.5 C 220.833,209.167 220.833,209.167 219.5,208.5 Z"/></g>
<g><path style="opacity:0.993" fill="#4248a3" d="M 151.5,163.5 C 150.71,164.794 149.71,165.961 148.5,167C 142.209,169.632 136.876,173.466 132.5,178.5C 126.381,183.322 119.547,187.989 112,192.5C 111.667,192.167 111.333,191.833 111,191.5C 110.561,194.299 109.228,195.299 107,194.5C 104.001,198.468 100.335,200.801 96,201.5C 95.0197,202.981 93.853,204.315 92.5,205.5C 80.5884,210.933 70.9217,218.933 63.5,229.5C 61.6182,230.221 61.2848,231.221 62.5,232.5C 62.6716,233.492 62.3382,234.158 61.5,234.5C 60.0924,233.089 59.0924,231.423 58.5,229.5C 59.7857,227.374 60.6191,225.041 61,222.5C 68.5418,214.657 77.0418,208.157 86.5,203C 88.4032,201.553 90.0699,199.886 91.5,198C 95.7518,197.54 99.0851,195.54 101.5,192C 102.833,191.667 104.167,191.333 105.5,191C 110.228,187.274 115.228,183.941 120.5,181C 125.006,174.068 131.339,169.568 139.5,167.5C 143.712,166.577 147.712,165.243 151.5,163.5 Z"/></g>
<g><path style="opacity:1" fill="#0b0475" d="M 237.5,199.5 C 236.152,200.601 234.652,201.601 233,202.5C 232.667,202.167 232.333,201.833 232,201.5C 230.997,204.156 229.33,205.156 227,204.5C 224.78,207.189 222.28,208.522 219.5,208.5C 217.562,210.245 215.229,211.245 212.5,211.5C 211.833,210.167 211.167,210.167 210.5,211.5C 209.778,211.918 209.278,212.584 209,213.5C 207.172,213.31 205.338,212.977 203.5,212.5C 195.809,212.308 188.142,212.642 180.5,213.5C 176.189,213.244 172.189,212.244 168.5,210.5C 178.157,211.726 187.824,211.726 197.5,210.5C 210.971,206.73 224.304,203.063 237.5,199.5 Z"/></g>
<g><path style="opacity:0.004" fill="#000000" d="M 210.5,211.5 C 211.167,211.5 211.833,211.5 212.5,211.5C 211.833,212.833 211.167,212.833 210.5,211.5 Z"/></g>
<g><path style="opacity:1" fill="#353e90" d="M 167.5,210.5 C 167.833,210.5 168.167,210.5 168.5,210.5C 172.189,212.244 176.189,213.244 180.5,213.5C 188.142,212.642 195.809,212.308 203.5,212.5C 203.38,213.586 202.713,214.253 201.5,214.5C 199.199,213.604 196.866,213.438 194.5,214C 191.947,216.553 188.114,220.386 183,225.5C 182.667,225.167 182.333,224.833 182,224.5C 181.558,226.679 180.558,227.345 179,226.5C 178.389,228.75 177.056,230.417 175,231.5C 174,231.5 173,231.5 172,231.5C 171.751,232.624 171.251,233.624 170.5,234.5C 161.911,239.268 153.745,244.601 146,250.5C 145.667,250.167 145.333,249.833 145,249.5C 142.523,252.816 139.356,255.149 135.5,256.5C 134.433,254.121 135.433,253.121 138.5,253.5C 138.33,252.178 138.663,251.011 139.5,250C 142.962,248.996 146.296,247.83 149.5,246.5C 149.238,245.022 149.571,243.689 150.5,242.5C 153.152,240.418 156.152,239.085 159.5,238.5C 160.267,235.091 162.267,232.925 165.5,232C 169.64,228.613 171.807,224.446 172,219.5C 169.94,216.714 168.44,213.714 167.5,210.5 Z"/></g>
<g><path style="opacity:1" fill="#7178c8" d="M 149.5,201.5 C 147.974,202.492 147.307,203.992 147.5,206C 147.833,207.167 148.167,208.333 148.5,209.5C 162.376,209.049 168.043,215.716 165.5,229.5C 162.01,229.151 159.677,230.651 158.5,234C 153.991,237.022 149.657,240.188 145.5,243.5C 149.764,238.569 154.431,233.902 159.5,229.5C 161.002,224.684 160.335,220.184 157.5,216C 154.978,215.39 152.978,214.057 151.5,212C 147.281,211.827 143.281,210.827 139.5,209C 141.439,207.568 142.772,205.735 143.5,203.5C 144.167,202.833 144.833,202.167 145.5,201.5C 147.035,200.646 148.368,200.646 149.5,201.5 Z"/></g>
<g><path style="opacity:0.004" fill="#0000ff" d="M 63.5,229.5 C 63.4431,230.609 63.1098,231.609 62.5,232.5C 61.2848,231.221 61.6182,230.221 63.5,229.5 Z"/></g>
<g><path style="opacity:1" fill="#6e73be" d="M 209.5,165.5 C 208.07,166.537 206.403,167.204 204.5,167.5C 197.638,164.167 190.638,161 183.5,158C 179.235,156.985 174.902,156.485 170.5,156.5C 160.994,157.299 151.994,159.799 143.5,164C 141.907,164.949 140.574,166.115 139.5,167.5C 131.339,169.568 125.006,174.068 120.5,181C 115.228,183.941 110.228,187.274 105.5,191C 104.167,191.333 102.833,191.667 101.5,192C 99.0851,195.54 95.7518,197.54 91.5,198C 90.0699,199.886 88.4032,201.553 86.5,203C 77.0418,208.157 68.5418,214.657 61,222.5C 60.6191,225.041 59.7857,227.374 58.5,229.5C 59.0924,231.423 60.0924,233.089 61.5,234.5C 62.075,236.411 63.075,238.078 64.5,239.5C 63.8333,239.5 63.1667,239.5 62.5,239.5C 62.1667,238.167 61.8333,238.167 61.5,239.5C 63.1587,243.285 63.6587,247.285 63,251.5C 56.5988,259.659 58.0988,266.159 67.5,271C 75.9177,273.499 84.5843,274.166 93.5,273C 100.42,269.899 107.42,267.066 114.5,264.5C 113.4,265.605 112.733,266.938 112.5,268.5C 106.897,269.405 101.564,271.238 96.5,274C 82.5725,276.936 68.5725,277.269 54.5,275C 50.9734,274.049 47.6401,272.716 44.5,271C 40.5598,269.985 36.5598,269.485 32.5,269.5C 29.7507,267.6 27.084,265.434 24.5,263C 24.8333,262.667 25.1667,262.333 25.5,262C 21.529,259.235 19.1957,255.402 18.5,250.5C 24.182,250.696 29.8487,250.196 35.5,249C 39.6117,246.221 42.1117,242.388 43,237.5C 49.8992,231.202 55.7325,224.035 60.5,216C 65.6332,213.265 70.6332,210.265 75.5,207C 77.9795,203.353 80.9795,200.187 84.5,197.5C 91.4653,192.361 98.7987,187.861 106.5,184C 107.618,182.926 108.618,181.76 109.5,180.5C 121.032,173.905 132.365,167.072 143.5,160C 163.336,153.905 183.169,154.072 203,160.5C 204.738,162.74 206.905,164.407 209.5,165.5 Z"/></g>
<g><path style="opacity:1" fill="#9196d7" d="M 143.5,203.5 C 142.772,205.735 141.439,207.568 139.5,209C 143.281,210.827 147.281,211.827 151.5,212C 152.978,214.057 154.978,215.39 157.5,216C 160.335,220.184 161.002,224.684 159.5,229.5C 154.431,233.902 149.764,238.569 145.5,243.5C 140.44,245.694 136.107,248.861 132.5,253C 125.563,255.451 119.563,259.284 114.5,264.5C 107.42,267.066 100.42,269.899 93.5,273C 84.5843,274.166 75.9177,273.499 67.5,271C 58.0988,266.159 56.5988,259.659 63,251.5C 63.6587,247.285 63.1587,243.285 61.5,239.5C 61.8333,239.5 62.1667,239.5 62.5,239.5C 63.1667,239.5 63.8333,239.5 64.5,239.5C 71.0732,240.627 77.9066,240.627 85,239.5C 87.7256,237.428 91.059,235.428 95,233.5C 99.0157,231.459 103.182,228.793 107.5,225.5C 108.086,225.709 108.586,226.043 109,226.5C 109.249,225.376 109.749,224.376 110.5,223.5C 116.994,220 122.328,216.5 126.5,213C 129.538,211.467 132.038,209.967 134,208.5C 134.333,208.833 134.667,209.167 135,209.5C 135.439,206.701 136.772,205.701 139,206.5C 139.969,203.961 141.469,202.961 143.5,203.5 Z"/></g>
<g><path style="opacity:1" fill="#acb1e4" d="M 138.5,219.5 C 142.167,219.5 145.833,219.5 149.5,219.5C 149.704,223.981 148.371,227.981 145.5,231.5C 132.618,241.872 119.285,251.706 105.5,261C 99.5721,263.643 93.4055,265.476 87,266.5C 82.26,266.488 78.26,264.822 75,261.5C 72.6146,257.543 73.4479,254.376 77.5,252C 97.2918,240.105 117.625,229.271 138.5,219.5 Z"/></g>
<g><path style="opacity:0.996" fill="#535aaa" d="M 149.5,201.5 C 151.938,203.267 154.605,204.601 157.5,205.5C 160.235,208.201 163.569,209.868 167.5,210.5C 168.44,213.714 169.94,216.714 172,219.5C 171.807,224.446 169.64,228.613 165.5,232C 162.267,232.925 160.267,235.091 159.5,238.5C 156.152,239.085 153.152,240.418 150.5,242.5C 149.571,243.689 149.238,245.022 149.5,246.5C 146.296,247.83 142.962,248.996 139.5,250C 138.663,251.011 138.33,252.178 138.5,253.5C 135.433,253.121 134.433,254.121 135.5,256.5C 132.674,259.402 129.34,261.902 125.5,264C 122.589,265.761 119.589,267.261 116.5,268.5C 116.631,267.624 116.298,266.957 115.5,266.5C 114.482,267.193 113.482,267.859 112.5,268.5C 112.733,266.938 113.4,265.605 114.5,264.5C 119.563,259.284 125.563,255.451 132.5,253C 136.107,248.861 140.44,245.694 145.5,243.5C 149.657,240.188 153.991,237.022 158.5,234C 159.677,230.651 162.01,229.151 165.5,229.5C 168.043,215.716 162.376,209.049 148.5,209.5C 148.167,208.333 147.833,207.167 147.5,206C 147.307,203.992 147.974,202.492 149.5,201.5 Z"/></g>
<g><path style="opacity:0.997" fill="#3c4388" d="M 116.5,268.5 C 114.832,270.858 112.499,272.524 109.5,273.5C 107.898,272.45 107.065,273.117 107,275.5C 106.667,275.167 106.333,274.833 106,274.5C 102.785,276.686 99.285,278.352 95.5,279.5C 94.0052,278.295 92.6719,278.295 91.5,279.5C 90.0322,280.451 88.3655,281.451 86.5,282.5C 84.7219,282.431 82.8886,282.097 81,281.5C 80.044,282.894 78.7106,283.561 77,283.5C 72,282.167 67,282.167 62,283.5C 59.551,283.139 57.2177,282.472 55,281.5C 54.6667,281.833 54.3333,282.167 54,282.5C 52.4702,281.364 51.1369,280.364 50,279.5C 49.586,279.957 49.086,280.291 48.5,280.5C 41.9853,278.267 36.652,274.6 32.5,269.5C 36.5598,269.485 40.5598,269.985 44.5,271C 47.6401,272.716 50.9734,274.049 54.5,275C 68.5725,277.269 82.5725,276.936 96.5,274C 101.564,271.238 106.897,269.405 112.5,268.5C 113.482,267.859 114.482,267.193 115.5,266.5C 116.298,266.957 116.631,267.624 116.5,268.5 Z"/></g>
<g><path style="opacity:0.004" fill="#000000" d="M 91.5,279.5 C 92.2389,279.369 92.9056,279.536 93.5,280C 92.5632,280.692 91.8966,280.525 91.5,279.5 Z"/></g>
</svg>
