<?xml version="1.0" encoding="UTF-8"?>
<!DOCTYPE svg PUBLIC "-//W3C//DTD SVG 1.1//EN" "http://www.w3.org/Graphics/SVG/1.1/DTD/svg11.dtd">
<svg xmlns="http://www.w3.org/2000/svg" version="1.1" width="232px" height="232px" style="shape-rendering:geometricPrecision; text-rendering:geometricPrecision; image-rendering:optimizeQuality; fill-rule:evenodd; clip-rule:evenodd" xmlns:xlink="http://www.w3.org/1999/xlink">
<g><path style="opacity:0.951" fill="#f44534" d="M 120.5,4.5 C 121.376,4.36912 122.043,4.70245 122.5,5.5C 132.642,26.7812 142.975,47.7812 153.5,68.5C 176.816,48.0188 199.982,27.3521 223,6.5C 212.555,35.651 201.388,64.651 189.5,93.5C 190,93.8333 190.5,94.1667 191,94.5C 202.709,90.8123 214.542,87.9789 226.5,86C 214.639,102.361 202.972,118.861 191.5,135.5C 192.09,136.799 193.09,137.632 194.5,138C 204.249,141.415 213.916,144.915 223.5,148.5C 212.292,154.604 200.959,160.437 189.5,166C 201.001,185.35 212.334,204.85 223.5,224.5C 223.167,224.833 222.833,225.167 222.5,225.5C 201.332,212.751 180.332,199.751 159.5,186.5C 154.697,200.243 149.697,213.91 144.5,227.5C 137.771,212.825 130.937,198.159 124,183.5C 105.358,197.308 86.8582,211.308 68.5,225.5C 67.3861,224.277 67.2195,222.944 68,221.5C 73.1731,207.157 78.3398,192.823 83.5,178.5C 82.8333,178.167 82.1667,177.833 81.5,177.5C 55.8609,182.795 30.1942,187.628 4.5,192C 24.3581,176.641 44.3581,161.475 64.5,146.5C 44.1667,131.667 23.8333,116.833 3.5,102C 26.1703,103.334 48.837,104.667 71.5,106C 50.4387,73.6253 29.4387,41.292 8.5,9C 9.90775,8.68475 11.2411,9.01809 12.5,10C 45.581,31.9576 78.7477,53.7909 112,75.5C 115.568,51.9547 118.401,28.288 120.5,4.5 Z"/></g>
<g><path style="opacity:1" fill="#fe9f01" d="M 124.5,25.5 C 133.686,43.0482 142.686,60.7149 151.5,78.5C 170.281,62.5552 188.614,46.0552 206.5,29C 207.332,28.3123 207.998,28.479 208.5,29.5C 198.259,53.975 188.593,78.6417 179.5,103.5C 190.072,100.356 200.739,97.8561 211.5,96C 201.377,110.413 191.377,124.913 181.5,139.5C 190.064,143.023 198.731,146.356 207.5,149.5C 198.531,153.984 189.531,158.484 180.5,163C 189.419,177.502 198.085,192.169 206.5,207C 189.222,197.611 172.222,187.445 155.5,176.5C 151.575,187.776 147.741,199.109 144,210.5C 138.255,198.418 132.422,186.418 126.5,174.5C 110.885,185.448 95.5518,196.781 80.5,208.5C 80.1667,208 79.8333,207.5 79.5,207C 83.9873,194.531 88.3206,182.031 92.5,169.5C 71.3493,172.923 50.3493,176.757 29.5,181C 44.5386,169.489 59.5386,157.989 74.5,146.5C 58.2049,134.345 41.8716,122.178 25.5,110C 44.8142,111.249 64.1475,112.249 83.5,113C 65.4154,84.8291 47.0821,56.8291 28.5,29C 58.1523,47.5989 87.6523,66.7656 117,86.5C 119.775,66.2036 122.275,45.8702 124.5,25.5 Z"/></g>
<g><path style="opacity:1" fill="#ffe83c" d="M 129.5,54.5 C 136.5,70.5198 143,86.8531 149,103.5C 162.705,88.7974 176.038,73.7974 189,58.5C 179.816,78.5388 170.316,98.5388 160.5,118.5C 161,118.833 161.5,119.167 162,119.5C 171.954,115.622 182.121,112.789 192.5,111C 182.5,121 172.5,131 162.5,141C 171.374,144.403 180.374,147.403 189.5,150C 180.957,151.938 172.29,153.605 163.5,155C 170.958,164.409 177.458,174.242 183,184.5C 172.082,177.625 161.248,170.625 150.5,163.5C 147.009,171.132 144.176,179.132 142,187.5C 138.258,178.352 134.258,169.352 130,160.5C 120.049,167.449 110.383,174.783 101,182.5C 104.451,173.578 107.951,164.578 111.5,155.5C 95.7626,158.586 80.096,161.753 64.5,165C 76.2988,158.032 87.9655,150.865 99.5,143.5C 85.4455,135.806 71.1122,128.639 56.5,122C 71.6642,122.859 86.8309,124.025 102,125.5C 102.833,125.167 103.667,124.833 104.5,124.5C 91.7589,104.982 79.5922,85.3158 68,65.5C 87.0801,78.6237 106.247,91.6237 125.5,104.5C 127.696,87.9213 129.029,71.2546 129.5,54.5 Z"/></g>
<g><path style="opacity:1" fill="#fff074" d="M 113.5,101.5 C 108.473,104.196 104.806,108.196 102.5,113.5C 94.6468,101.646 86.6468,89.8126 78.5,78C 90.7313,84.7977 102.398,92.631 113.5,101.5 Z"/></g>
<g><path style="opacity:1" fill="#fff17a" d="M 143.5,99.5 C 138.724,97.8033 134.39,98.4699 130.5,101.5C 130.825,91.7847 131.659,82.1181 133,72.5C 136.801,81.4057 140.301,90.4057 143.5,99.5 Z"/></g>
<g><path style="opacity:1" fill="#fff283" d="M 160.5,109.5 C 158.518,106.863 155.852,105.53 152.5,105.5C 159.126,97.7044 165.959,90.0377 173,82.5C 169.575,91.7843 165.408,100.784 160.5,109.5 Z"/></g>
<g><path style="opacity:1" fill="#fff38b" d="M 113.5,101.5 C 117.025,102.759 120.025,104.759 122.5,107.5C 115.527,110.756 110.86,116.089 108.5,123.5C 106.11,120.434 104.11,117.1 102.5,113.5C 104.806,108.196 108.473,104.196 113.5,101.5 Z"/></g>
<g><path style="opacity:1" fill="#fff5a2" d="M 143.5,99.5 C 144.985,103.141 146.485,106.808 148,110.5C 149.707,108.963 151.207,107.296 152.5,105.5C 155.852,105.53 158.518,106.863 160.5,109.5C 159.07,113.354 157.403,117.021 155.5,120.5C 155.489,118.983 154.823,117.816 153.5,117C 140.663,110.165 129.496,112.331 120,123.5C 114.908,133.577 115.575,143.244 122,152.5C 123.972,154.232 126.139,155.565 128.5,156.5C 122.495,161.601 116.328,166.601 110,171.5C 112.086,164.477 114.92,157.643 118.5,151C 116.527,150.505 114.527,150.338 112.5,150.5C 110.554,148.266 109.387,145.599 109,142.5C 108.501,138.514 108.334,134.514 108.5,130.5C 109.978,130.762 111.311,130.429 112.5,129.5C 112.376,128.893 112.043,128.56 111.5,128.5C 110.248,126.999 109.248,125.332 108.5,123.5C 110.86,116.089 115.527,110.756 122.5,107.5C 124.941,108.557 127.275,109.89 129.5,111.5C 130.487,108.232 130.82,104.898 130.5,101.5C 134.39,98.4699 138.724,97.8033 143.5,99.5 Z"/></g>
<g><path style="opacity:1" fill="#fff8bc" d="M 155.5,120.5 C 155.249,122.17 154.582,123.67 153.5,125C 155.107,124.981 156.774,124.815 158.5,124.5C 162.226,126.617 163.893,129.95 163.5,134.5C 161.189,137.147 158.856,139.814 156.5,142.5C 157.357,143.425 158.357,144.092 159.5,144.5C 154.156,155.172 145.489,159.506 133.5,157.5C 132.5,153.833 130.833,153.5 128.5,156.5C 126.139,155.565 123.972,154.232 122,152.5C 115.575,143.244 114.908,133.577 120,123.5C 129.496,112.331 140.663,110.165 153.5,117C 154.823,117.816 155.489,118.983 155.5,120.5 Z"/></g>
<g><path style="opacity:1" fill="#fffad0" d="M 137.5,123.5 C 149.095,123.375 154.261,129.041 153,140.5C 148.172,149.886 141.006,152.052 131.5,147C 124.543,139.081 125.209,131.748 133.5,125C 135.058,124.79 136.391,124.29 137.5,123.5 Z"/></g>
<g><path style="opacity:1" fill="#fff5a0" d="M 163.5,134.5 C 163.893,129.95 162.226,126.617 158.5,124.5C 165.611,121.63 172.944,119.463 180.5,118C 174.965,123.703 169.298,129.203 163.5,134.5 Z"/></g>
<g><path style="opacity:1" fill="#fff176" d="M 98.5,129.5 C 98.5,132.167 98.5,134.833 98.5,137.5C 91.7294,134.628 85.0627,131.461 78.5,128C 85.3506,127.739 92.0173,128.239 98.5,129.5 Z"/></g>
<g><path style="opacity:1" fill="#fff38c" d="M 111.5,128.5 C 112.043,128.56 112.376,128.893 112.5,129.5C 111.311,130.429 109.978,130.762 108.5,130.5C 108.334,134.514 108.501,138.514 109,142.5C 109.387,145.599 110.554,148.266 112.5,150.5C 103.641,153.106 94.6414,155.273 85.5,157C 92.8333,152.333 100.167,147.667 107.5,143C 104.436,141.141 101.436,139.308 98.5,137.5C 98.5,134.833 98.5,132.167 98.5,129.5C 103.032,129.818 107.366,129.485 111.5,128.5 Z"/></g>
<g><path style="opacity:1" fill="#fff5a2" d="M 159.5,144.5 C 164.572,145.69 169.572,147.19 174.5,149C 168.703,149.66 163.036,150.827 157.5,152.5C 161.956,158.579 166.29,164.746 170.5,171C 162.77,167.204 155.27,162.704 148,157.5C 145.733,163.467 143.567,169.467 141.5,175.5C 138.287,169.74 135.62,163.74 133.5,157.5C 145.489,159.506 154.156,155.172 159.5,144.5 Z"/></g>
</svg>
